<mxfile host="Electron" agent="Mozilla/5.0 (Windows NT 10.0; Win64; x64) AppleWebKit/537.36 (KHTML, like Gecko) draw.io/28.1.2 Chrome/138.0.7204.243 Electron/37.4.0 Safari/537.36" version="28.1.2">
  <diagram name="Page-1" id="bsHb9dS1sMWn0TJ6tBK2">
    <mxGraphModel dx="3792" dy="1790" grid="1" gridSize="10" guides="1" tooltips="1" connect="1" arrows="1" fold="1" page="1" pageScale="1" pageWidth="1169" pageHeight="1654" math="0" shadow="0">
      <root>
        <mxCell id="0" />
        <mxCell id="1" parent="0" />
        <mxCell id="CiracRnr1kj4nNwio__P-1" style="edgeStyle=orthogonalEdgeStyle;rounded=0;orthogonalLoop=1;jettySize=auto;html=1;exitX=0;exitY=0.5;exitDx=0;exitDy=0;" edge="1" parent="1" source="CiracRnr1kj4nNwio__P-3" target="CiracRnr1kj4nNwio__P-5">
          <mxGeometry relative="1" as="geometry" />
        </mxCell>
        <mxCell id="CiracRnr1kj4nNwio__P-2" style="edgeStyle=orthogonalEdgeStyle;rounded=0;orthogonalLoop=1;jettySize=auto;html=1;exitX=1;exitY=0.5;exitDx=0;exitDy=0;" edge="1" parent="1" source="CiracRnr1kj4nNwio__P-3" target="CiracRnr1kj4nNwio__P-7">
          <mxGeometry relative="1" as="geometry" />
        </mxCell>
        <mxCell id="CiracRnr1kj4nNwio__P-3" value="role?" style="rhombus;whiteSpace=wrap;html=1;fillColor=#ffffff;strokeColor=#000000;" vertex="1" parent="1">
          <mxGeometry x="1670" y="115" width="100" height="100" as="geometry" />
        </mxCell>
        <mxCell id="CiracRnr1kj4nNwio__P-4" value="" style="edgeStyle=orthogonalEdgeStyle;rounded=0;orthogonalLoop=1;jettySize=auto;html=1;movable=1;resizable=1;rotatable=1;deletable=1;editable=1;locked=0;connectable=1;" edge="1" parent="1" source="CiracRnr1kj4nNwio__P-5" target="CiracRnr1kj4nNwio__P-9">
          <mxGeometry relative="1" as="geometry" />
        </mxCell>
        <mxCell id="CiracRnr1kj4nNwio__P-5" value="customer_menu(username)" style="rounded=0;whiteSpace=wrap;html=1;fillColor=#ffffff;strokeColor=#000000;movable=1;resizable=1;rotatable=1;deletable=1;editable=1;locked=0;connectable=1;" vertex="1" parent="1">
          <mxGeometry x="1340" y="355" width="180" height="40" as="geometry" />
        </mxCell>
        <mxCell id="CiracRnr1kj4nNwio__P-6" value="" style="edgeStyle=orthogonalEdgeStyle;rounded=0;orthogonalLoop=1;jettySize=auto;html=1;movable=1;resizable=1;rotatable=1;deletable=1;editable=1;locked=0;connectable=1;" edge="1" parent="1" source="CiracRnr1kj4nNwio__P-7" target="CiracRnr1kj4nNwio__P-30">
          <mxGeometry relative="1" as="geometry" />
        </mxCell>
        <mxCell id="CiracRnr1kj4nNwio__P-7" value="admin_menu()" style="rounded=0;whiteSpace=wrap;html=1;fillColor=#ffffff;strokeColor=#000000;movable=1;resizable=1;rotatable=1;deletable=1;editable=1;locked=0;connectable=1;" vertex="1" parent="1">
          <mxGeometry x="1930" y="355" width="120" height="40" as="geometry" />
        </mxCell>
        <mxCell id="CiracRnr1kj4nNwio__P-8" value="" style="edgeStyle=orthogonalEdgeStyle;rounded=0;orthogonalLoop=1;jettySize=auto;html=1;movable=1;resizable=1;rotatable=1;deletable=1;editable=1;locked=0;connectable=1;" edge="1" parent="1" source="CiracRnr1kj4nNwio__P-9" target="CiracRnr1kj4nNwio__P-14">
          <mxGeometry relative="1" as="geometry" />
        </mxCell>
        <mxCell id="CiracRnr1kj4nNwio__P-9" value="Print Menu Customer&lt;br&gt;1. Beli Tiket&lt;br&gt;2. Beli Merchandise&lt;br&gt;3. Lihat Keranjang&lt;br&gt;4. Checkout&lt;br&gt;5. Logout" style="shape=parallelogram;perimeter=parallelogramPerimeter;whiteSpace=wrap;html=1;fixedSize=1;fillColor=#ffffff;strokeColor=#000000;movable=1;resizable=1;rotatable=1;deletable=1;editable=1;locked=0;connectable=1;" vertex="1" parent="1">
          <mxGeometry x="1340" y="435" width="180" height="120" as="geometry" />
        </mxCell>
        <mxCell id="CiracRnr1kj4nNwio__P-10" value="" style="edgeStyle=orthogonalEdgeStyle;rounded=0;orthogonalLoop=1;jettySize=auto;html=1;movable=1;resizable=1;rotatable=1;deletable=1;editable=1;locked=0;connectable=1;" edge="1" parent="1" source="CiracRnr1kj4nNwio__P-11" target="CiracRnr1kj4nNwio__P-14">
          <mxGeometry relative="1" as="geometry" />
        </mxCell>
        <mxCell id="CiracRnr1kj4nNwio__P-11" value="Input choice" style="shape=parallelogram;perimeter=parallelogramPerimeter;whiteSpace=wrap;html=1;fixedSize=1;fillColor=#ffffff;strokeColor=#000000;movable=1;resizable=1;rotatable=1;deletable=1;editable=1;locked=0;connectable=1;" vertex="1" parent="1">
          <mxGeometry x="1370" y="595" width="120" height="40" as="geometry" />
        </mxCell>
        <mxCell id="CiracRnr1kj4nNwio__P-12" style="edgeStyle=orthogonalEdgeStyle;rounded=0;orthogonalLoop=1;jettySize=auto;html=1;exitX=0;exitY=0.5;exitDx=0;exitDy=0;movable=1;resizable=1;rotatable=1;deletable=1;editable=1;locked=0;connectable=1;" edge="1" parent="1" source="CiracRnr1kj4nNwio__P-14" target="CiracRnr1kj4nNwio__P-16">
          <mxGeometry relative="1" as="geometry" />
        </mxCell>
        <mxCell id="CiracRnr1kj4nNwio__P-13" style="edgeStyle=orthogonalEdgeStyle;rounded=0;orthogonalLoop=1;jettySize=auto;html=1;exitX=1;exitY=0.5;exitDx=0;exitDy=0;movable=1;resizable=1;rotatable=1;deletable=1;editable=1;locked=0;connectable=1;" edge="1" parent="1" source="CiracRnr1kj4nNwio__P-14" target="CiracRnr1kj4nNwio__P-20">
          <mxGeometry relative="1" as="geometry" />
        </mxCell>
        <mxCell id="CiracRnr1kj4nNwio__P-14" value="choice?" style="rhombus;whiteSpace=wrap;html=1;fillColor=#ffffff;strokeColor=#000000;movable=1;resizable=1;rotatable=1;deletable=1;editable=1;locked=0;connectable=1;" vertex="1" parent="1">
          <mxGeometry x="1380" y="665" width="100" height="100" as="geometry" />
        </mxCell>
        <mxCell id="CiracRnr1kj4nNwio__P-15" style="edgeStyle=orthogonalEdgeStyle;rounded=0;orthogonalLoop=1;jettySize=auto;html=1;exitX=0.5;exitY=1;exitDx=0;exitDy=0;movable=1;resizable=1;rotatable=1;deletable=1;editable=1;locked=0;connectable=1;" edge="1" parent="1" source="CiracRnr1kj4nNwio__P-16" target="CiracRnr1kj4nNwio__P-18">
          <mxGeometry relative="1" as="geometry" />
        </mxCell>
        <mxCell id="CiracRnr1kj4nNwio__P-16" value="add_to_cart(username, &#39;tiket&#39;)" style="rounded=0;whiteSpace=wrap;html=1;fillColor=#ffffff;strokeColor=#000000;movable=1;resizable=1;rotatable=1;deletable=1;editable=1;locked=0;connectable=1;" vertex="1" parent="1">
          <mxGeometry x="1190" y="795" width="160" height="40" as="geometry" />
        </mxCell>
        <mxCell id="CiracRnr1kj4nNwio__P-17" value="" style="edgeStyle=orthogonalEdgeStyle;rounded=0;orthogonalLoop=1;jettySize=auto;html=1;" edge="1" parent="1" source="CiracRnr1kj4nNwio__P-18" target="CiracRnr1kj4nNwio__P-26">
          <mxGeometry relative="1" as="geometry" />
        </mxCell>
        <mxCell id="CiracRnr1kj4nNwio__P-18" value="add_to_cart(username, &#39;merch&#39;)" style="rounded=0;whiteSpace=wrap;html=1;fillColor=#ffffff;strokeColor=#000000;movable=1;resizable=1;rotatable=1;deletable=1;editable=1;locked=0;connectable=1;" vertex="1" parent="1">
          <mxGeometry x="1190" y="875" width="160" height="40" as="geometry" />
        </mxCell>
        <mxCell id="CiracRnr1kj4nNwio__P-19" value="" style="edgeStyle=orthogonalEdgeStyle;rounded=0;orthogonalLoop=1;jettySize=auto;html=1;movable=1;resizable=1;rotatable=1;deletable=1;editable=1;locked=0;connectable=1;" edge="1" parent="1" source="CiracRnr1kj4nNwio__P-20" target="CiracRnr1kj4nNwio__P-22">
          <mxGeometry relative="1" as="geometry" />
        </mxCell>
        <mxCell id="CiracRnr1kj4nNwio__P-20" value="view_cart(username)" style="rounded=0;whiteSpace=wrap;html=1;fillColor=#ffffff;strokeColor=#000000;movable=1;resizable=1;rotatable=1;deletable=1;editable=1;locked=0;connectable=1;" vertex="1" parent="1">
          <mxGeometry x="1510" y="795" width="140" height="40" as="geometry" />
        </mxCell>
        <mxCell id="CiracRnr1kj4nNwio__P-21" style="edgeStyle=orthogonalEdgeStyle;rounded=0;orthogonalLoop=1;jettySize=auto;html=1;exitX=0.5;exitY=1;exitDx=0;exitDy=0;" edge="1" parent="1" source="CiracRnr1kj4nNwio__P-22" target="CiracRnr1kj4nNwio__P-59">
          <mxGeometry relative="1" as="geometry" />
        </mxCell>
        <mxCell id="CiracRnr1kj4nNwio__P-22" value="checkout(username)" style="rounded=0;whiteSpace=wrap;html=1;fillColor=#ffffff;strokeColor=#000000;movable=1;resizable=1;rotatable=1;deletable=1;editable=1;locked=0;connectable=1;" vertex="1" parent="1">
          <mxGeometry x="1510" y="875" width="140" height="40" as="geometry" />
        </mxCell>
        <mxCell id="CiracRnr1kj4nNwio__P-23" value="" style="edgeStyle=orthogonalEdgeStyle;rounded=0;orthogonalLoop=1;jettySize=auto;html=1;movable=1;resizable=1;rotatable=1;deletable=1;editable=1;locked=0;connectable=1;" edge="1" parent="1" source="CiracRnr1kj4nNwio__P-24" target="CiracRnr1kj4nNwio__P-28">
          <mxGeometry relative="1" as="geometry" />
        </mxCell>
        <mxCell id="CiracRnr1kj4nNwio__P-24" value="Print &quot;You Have Logged Out.&quot;" style="shape=parallelogram;perimeter=parallelogramPerimeter;whiteSpace=wrap;html=1;fixedSize=1;fillColor=#ffffff;strokeColor=#000000;movable=1;resizable=1;rotatable=1;deletable=1;editable=1;locked=0;connectable=1;" vertex="1" parent="1">
          <mxGeometry x="1180" y="1035" width="180" height="40" as="geometry" />
        </mxCell>
        <mxCell id="CiracRnr1kj4nNwio__P-25" value="" style="edgeStyle=orthogonalEdgeStyle;rounded=0;orthogonalLoop=1;jettySize=auto;html=1;" edge="1" parent="1" source="CiracRnr1kj4nNwio__P-26" target="CiracRnr1kj4nNwio__P-24">
          <mxGeometry relative="1" as="geometry" />
        </mxCell>
        <mxCell id="CiracRnr1kj4nNwio__P-26" value="Print &quot;Invalid Choice.&quot;" style="shape=parallelogram;perimeter=parallelogramPerimeter;whiteSpace=wrap;html=1;fixedSize=1;fillColor=#ffffff;strokeColor=#000000;movable=1;resizable=1;rotatable=1;deletable=1;editable=1;locked=0;connectable=1;" vertex="1" parent="1">
          <mxGeometry x="1200" y="955" width="140" height="40" as="geometry" />
        </mxCell>
        <mxCell id="CiracRnr1kj4nNwio__P-27" style="edgeStyle=orthogonalEdgeStyle;rounded=0;orthogonalLoop=1;jettySize=auto;html=1;exitX=0.5;exitY=1;exitDx=0;exitDy=0;" edge="1" parent="1" source="CiracRnr1kj4nNwio__P-28" target="CiracRnr1kj4nNwio__P-57">
          <mxGeometry relative="1" as="geometry" />
        </mxCell>
        <mxCell id="CiracRnr1kj4nNwio__P-28" value="Return (to Input choice)" style="rounded=1;whiteSpace=wrap;html=1;arcSize=24;fillColor=#ffffff;strokeColor=#000000;movable=1;resizable=1;rotatable=1;deletable=1;editable=1;locked=0;connectable=1;" vertex="1" parent="1">
          <mxGeometry x="1190" y="1115" width="160" height="40" as="geometry" />
        </mxCell>
        <mxCell id="CiracRnr1kj4nNwio__P-29" value="" style="edgeStyle=orthogonalEdgeStyle;rounded=0;orthogonalLoop=1;jettySize=auto;html=1;movable=1;resizable=1;rotatable=1;deletable=1;editable=1;locked=0;connectable=1;" edge="1" parent="1" source="CiracRnr1kj4nNwio__P-30" target="CiracRnr1kj4nNwio__P-35">
          <mxGeometry relative="1" as="geometry" />
        </mxCell>
        <mxCell id="CiracRnr1kj4nNwio__P-30" value="Print Menu Admin&lt;br&gt;1. Laporan Transaksi&lt;br&gt;2. Ubah Harga Produk&lt;br&gt;3. Tambah Stok Produk&lt;br&gt;4. Atur Ulang Stok&lt;br&gt;5. Logout" style="shape=parallelogram;perimeter=parallelogramPerimeter;whiteSpace=wrap;html=1;fixedSize=1;fillColor=#ffffff;strokeColor=#000000;movable=1;resizable=1;rotatable=1;deletable=1;editable=1;locked=0;connectable=1;" vertex="1" parent="1">
          <mxGeometry x="1900" y="435" width="180" height="120" as="geometry" />
        </mxCell>
        <mxCell id="CiracRnr1kj4nNwio__P-31" value="" style="edgeStyle=orthogonalEdgeStyle;rounded=0;orthogonalLoop=1;jettySize=auto;html=1;movable=1;resizable=1;rotatable=1;deletable=1;editable=1;locked=0;connectable=1;" edge="1" parent="1" source="CiracRnr1kj4nNwio__P-32" target="CiracRnr1kj4nNwio__P-35">
          <mxGeometry relative="1" as="geometry" />
        </mxCell>
        <mxCell id="CiracRnr1kj4nNwio__P-32" value="Input choice" style="shape=parallelogram;perimeter=parallelogramPerimeter;whiteSpace=wrap;html=1;fixedSize=1;fillColor=#ffffff;strokeColor=#000000;movable=1;resizable=1;rotatable=1;deletable=1;editable=1;locked=0;connectable=1;" vertex="1" parent="1">
          <mxGeometry x="1930" y="595" width="120" height="40" as="geometry" />
        </mxCell>
        <mxCell id="CiracRnr1kj4nNwio__P-33" style="edgeStyle=orthogonalEdgeStyle;rounded=0;orthogonalLoop=1;jettySize=auto;html=1;exitX=0;exitY=0.5;exitDx=0;exitDy=0;movable=1;resizable=1;rotatable=1;deletable=1;editable=1;locked=0;connectable=1;" edge="1" parent="1" source="CiracRnr1kj4nNwio__P-35" target="CiracRnr1kj4nNwio__P-43">
          <mxGeometry relative="1" as="geometry" />
        </mxCell>
        <mxCell id="CiracRnr1kj4nNwio__P-34" style="edgeStyle=orthogonalEdgeStyle;rounded=0;orthogonalLoop=1;jettySize=auto;html=1;exitX=1;exitY=0.5;exitDx=0;exitDy=0;movable=1;resizable=1;rotatable=1;deletable=1;editable=1;locked=0;connectable=1;" edge="1" parent="1" source="CiracRnr1kj4nNwio__P-35" target="CiracRnr1kj4nNwio__P-37">
          <mxGeometry relative="1" as="geometry" />
        </mxCell>
        <mxCell id="CiracRnr1kj4nNwio__P-35" value="choice?" style="rhombus;whiteSpace=wrap;html=1;fillColor=#ffffff;strokeColor=#000000;movable=1;resizable=1;rotatable=1;deletable=1;editable=1;locked=0;connectable=1;" vertex="1" parent="1">
          <mxGeometry x="1940" y="665" width="100" height="100" as="geometry" />
        </mxCell>
        <mxCell id="CiracRnr1kj4nNwio__P-36" style="edgeStyle=orthogonalEdgeStyle;rounded=0;orthogonalLoop=1;jettySize=auto;html=1;exitX=0.5;exitY=1;exitDx=0;exitDy=0;movable=1;resizable=1;rotatable=1;deletable=1;editable=1;locked=0;connectable=1;" edge="1" parent="1" source="CiracRnr1kj4nNwio__P-37" target="CiracRnr1kj4nNwio__P-39">
          <mxGeometry relative="1" as="geometry" />
        </mxCell>
        <mxCell id="CiracRnr1kj4nNwio__P-37" value="admin_view_transactions()" style="rounded=0;whiteSpace=wrap;html=1;fillColor=#ffffff;strokeColor=#000000;movable=1;resizable=1;rotatable=1;deletable=1;editable=1;locked=0;connectable=1;" vertex="1" parent="1">
          <mxGeometry x="2070" y="795" width="180" height="40" as="geometry" />
        </mxCell>
        <mxCell id="CiracRnr1kj4nNwio__P-38" style="edgeStyle=orthogonalEdgeStyle;rounded=0;orthogonalLoop=1;jettySize=auto;html=1;exitX=0.5;exitY=1;exitDx=0;exitDy=0;" edge="1" parent="1" source="CiracRnr1kj4nNwio__P-39" target="CiracRnr1kj4nNwio__P-61">
          <mxGeometry relative="1" as="geometry" />
        </mxCell>
        <mxCell id="CiracRnr1kj4nNwio__P-39" value="admin_update_price()" style="rounded=0;whiteSpace=wrap;html=1;fillColor=#ffffff;strokeColor=#000000;movable=1;resizable=1;rotatable=1;deletable=1;editable=1;locked=0;connectable=1;" vertex="1" parent="1">
          <mxGeometry x="2070" y="875" width="180" height="40" as="geometry" />
        </mxCell>
        <mxCell id="CiracRnr1kj4nNwio__P-40" value="" style="edgeStyle=orthogonalEdgeStyle;rounded=0;orthogonalLoop=1;jettySize=auto;html=1;movable=1;resizable=1;rotatable=1;deletable=1;editable=1;locked=0;connectable=1;" edge="1" parent="1" source="CiracRnr1kj4nNwio__P-41" target="CiracRnr1kj4nNwio__P-45">
          <mxGeometry relative="1" as="geometry" />
        </mxCell>
        <mxCell id="CiracRnr1kj4nNwio__P-41" value="admin_add_stock()" style="rounded=0;whiteSpace=wrap;html=1;fillColor=#ffffff;strokeColor=#000000;movable=1;resizable=1;rotatable=1;deletable=1;editable=1;locked=0;connectable=1;" vertex="1" parent="1">
          <mxGeometry x="1730" y="875" width="180" height="40" as="geometry" />
        </mxCell>
        <mxCell id="CiracRnr1kj4nNwio__P-42" style="edgeStyle=orthogonalEdgeStyle;rounded=0;orthogonalLoop=1;jettySize=auto;html=1;exitX=0.5;exitY=1;exitDx=0;exitDy=0;movable=1;resizable=1;rotatable=1;deletable=1;editable=1;locked=0;connectable=1;" edge="1" parent="1" source="CiracRnr1kj4nNwio__P-43" target="CiracRnr1kj4nNwio__P-41">
          <mxGeometry relative="1" as="geometry" />
        </mxCell>
        <mxCell id="CiracRnr1kj4nNwio__P-43" value="admin_set_stock()" style="rounded=0;whiteSpace=wrap;html=1;fillColor=#ffffff;strokeColor=#000000;movable=1;resizable=1;rotatable=1;deletable=1;editable=1;locked=0;connectable=1;" vertex="1" parent="1">
          <mxGeometry x="1730" y="795" width="180" height="40" as="geometry" />
        </mxCell>
        <mxCell id="CiracRnr1kj4nNwio__P-44" style="edgeStyle=orthogonalEdgeStyle;rounded=0;orthogonalLoop=1;jettySize=auto;html=1;exitX=0.5;exitY=1;exitDx=0;exitDy=0;movable=1;resizable=1;rotatable=1;deletable=1;editable=1;locked=0;connectable=1;" edge="1" parent="1" source="CiracRnr1kj4nNwio__P-45" target="CiracRnr1kj4nNwio__P-47">
          <mxGeometry relative="1" as="geometry" />
        </mxCell>
        <mxCell id="CiracRnr1kj4nNwio__P-45" value="Print &quot;You Have Logged Out.&quot;" style="shape=parallelogram;perimeter=parallelogramPerimeter;whiteSpace=wrap;html=1;fixedSize=1;fillColor=#ffffff;strokeColor=#000000;movable=1;resizable=1;rotatable=1;deletable=1;editable=1;locked=0;connectable=1;" vertex="1" parent="1">
          <mxGeometry x="1730" y="955" width="180" height="40" as="geometry" />
        </mxCell>
        <mxCell id="CiracRnr1kj4nNwio__P-46" style="edgeStyle=orthogonalEdgeStyle;rounded=0;orthogonalLoop=1;jettySize=auto;html=1;movable=1;resizable=1;rotatable=1;deletable=1;editable=1;locked=0;connectable=1;" edge="1" parent="1" source="CiracRnr1kj4nNwio__P-47" target="CiracRnr1kj4nNwio__P-49">
          <mxGeometry relative="1" as="geometry" />
        </mxCell>
        <mxCell id="CiracRnr1kj4nNwio__P-47" value="Print &quot;Invalid Choice.&quot;" style="shape=parallelogram;perimeter=parallelogramPerimeter;whiteSpace=wrap;html=1;fixedSize=1;fillColor=#ffffff;strokeColor=#000000;movable=1;resizable=1;rotatable=1;deletable=1;editable=1;locked=0;connectable=1;" vertex="1" parent="1">
          <mxGeometry x="1750" y="1035" width="140" height="40" as="geometry" />
        </mxCell>
        <mxCell id="CiracRnr1kj4nNwio__P-48" style="edgeStyle=orthogonalEdgeStyle;rounded=0;orthogonalLoop=1;jettySize=auto;html=1;exitX=0.5;exitY=1;exitDx=0;exitDy=0;" edge="1" parent="1" source="CiracRnr1kj4nNwio__P-49" target="CiracRnr1kj4nNwio__P-57">
          <mxGeometry relative="1" as="geometry" />
        </mxCell>
        <mxCell id="CiracRnr1kj4nNwio__P-49" value="Return (to Input choice)" style="rounded=1;whiteSpace=wrap;html=1;arcSize=24;fillColor=#ffffff;strokeColor=#000000;movable=1;resizable=1;rotatable=1;deletable=1;editable=1;locked=0;connectable=1;" vertex="1" parent="1">
          <mxGeometry x="1740" y="1115" width="160" height="40" as="geometry" />
        </mxCell>
        <mxCell id="CiracRnr1kj4nNwio__P-50" value="True" style="text;html=1;align=center;verticalAlign=middle;resizable=1;points=[];autosize=1;strokeColor=none;fillColor=none;movable=1;rotatable=1;deletable=1;editable=1;locked=0;connectable=1;" vertex="1" parent="1">
          <mxGeometry x="1304" y="685" width="50" height="30" as="geometry" />
        </mxCell>
        <mxCell id="CiracRnr1kj4nNwio__P-51" value="True" style="text;html=1;align=center;verticalAlign=middle;resizable=1;points=[];autosize=1;strokeColor=none;fillColor=none;movable=1;rotatable=1;deletable=1;editable=1;locked=0;connectable=1;" vertex="1" parent="1">
          <mxGeometry x="1860" y="685" width="50" height="30" as="geometry" />
        </mxCell>
        <mxCell id="CiracRnr1kj4nNwio__P-52" value="False" style="text;html=1;align=center;verticalAlign=middle;resizable=1;points=[];autosize=1;strokeColor=none;fillColor=none;movable=1;rotatable=1;deletable=1;editable=1;locked=0;connectable=1;" vertex="1" parent="1">
          <mxGeometry x="2070" y="685" width="50" height="30" as="geometry" />
        </mxCell>
        <mxCell id="CiracRnr1kj4nNwio__P-53" value="False" style="text;html=1;align=center;verticalAlign=middle;resizable=1;points=[];autosize=1;strokeColor=none;fillColor=none;movable=1;rotatable=1;deletable=1;editable=1;locked=0;connectable=1;" vertex="1" parent="1">
          <mxGeometry x="1500" y="685" width="50" height="30" as="geometry" />
        </mxCell>
        <mxCell id="CiracRnr1kj4nNwio__P-54" value="" style="edgeStyle=orthogonalEdgeStyle;rounded=0;orthogonalLoop=1;jettySize=auto;html=1;" edge="1" parent="1" source="CiracRnr1kj4nNwio__P-55" target="CiracRnr1kj4nNwio__P-3">
          <mxGeometry relative="1" as="geometry" />
        </mxCell>
        <mxCell id="CiracRnr1kj4nNwio__P-55" value="" style="verticalLabelPosition=bottom;verticalAlign=top;html=1;shape=offPageConnector;rounded=0;size=0.5;" vertex="1" parent="1">
          <mxGeometry x="1690" y="13" width="60" height="60" as="geometry" />
        </mxCell>
        <mxCell id="CiracRnr1kj4nNwio__P-56" value="1" style="text;html=1;align=center;verticalAlign=middle;resizable=0;points=[];autosize=1;strokeColor=none;fillColor=none;" vertex="1" parent="1">
          <mxGeometry x="1705" y="23" width="30" height="30" as="geometry" />
        </mxCell>
        <mxCell id="CiracRnr1kj4nNwio__P-57" value="" style="verticalLabelPosition=bottom;verticalAlign=top;html=1;shape=offPageConnector;rounded=0;size=0.5;" vertex="1" parent="1">
          <mxGeometry x="1510" y="1219" width="60" height="60" as="geometry" />
        </mxCell>
        <mxCell id="CiracRnr1kj4nNwio__P-58" value="2" style="text;html=1;align=center;verticalAlign=middle;resizable=0;points=[];autosize=1;strokeColor=none;fillColor=none;" vertex="1" parent="1">
          <mxGeometry x="1525" y="1225" width="30" height="30" as="geometry" />
        </mxCell>
        <mxCell id="CiracRnr1kj4nNwio__P-59" value="" style="verticalLabelPosition=bottom;verticalAlign=top;html=1;shape=offPageConnector;rounded=0;size=0.5;" vertex="1" parent="1">
          <mxGeometry x="1550" y="955" width="60" height="60" as="geometry" />
        </mxCell>
        <mxCell id="CiracRnr1kj4nNwio__P-60" value="3" style="text;html=1;align=center;verticalAlign=middle;resizable=0;points=[];autosize=1;strokeColor=none;fillColor=none;" vertex="1" parent="1">
          <mxGeometry x="1565" y="965" width="30" height="30" as="geometry" />
        </mxCell>
        <mxCell id="CiracRnr1kj4nNwio__P-61" value="" style="verticalLabelPosition=bottom;verticalAlign=top;html=1;shape=offPageConnector;rounded=0;size=0.5;" vertex="1" parent="1">
          <mxGeometry x="2130" y="955" width="60" height="60" as="geometry" />
        </mxCell>
        <mxCell id="CiracRnr1kj4nNwio__P-62" value="3" style="text;html=1;align=center;verticalAlign=middle;resizable=0;points=[];autosize=1;strokeColor=none;fillColor=none;" vertex="1" parent="1">
          <mxGeometry x="2145" y="965" width="30" height="30" as="geometry" />
        </mxCell>
        <mxCell id="CiracRnr1kj4nNwio__P-63" value="" style="edgeStyle=orthogonalEdgeStyle;rounded=0;orthogonalLoop=1;jettySize=auto;html=1;" edge="1" parent="1" source="CiracRnr1kj4nNwio__P-64" target="CiracRnr1kj4nNwio__P-66">
          <mxGeometry relative="1" as="geometry" />
        </mxCell>
        <mxCell id="CiracRnr1kj4nNwio__P-64" value="Output Menu Utama&lt;br&gt;1. Registration&lt;br&gt;2. Login&lt;br&gt;3. Exit" style="shape=parallelogram;perimeter=parallelogramPerimeter;whiteSpace=wrap;html=1;fixedSize=1;fillColor=#ffffff;strokeColor=#000000;" vertex="1" parent="1">
          <mxGeometry x="226" y="120" width="188" height="80" as="geometry" />
        </mxCell>
        <mxCell id="CiracRnr1kj4nNwio__P-65" value="" style="edgeStyle=orthogonalEdgeStyle;rounded=0;orthogonalLoop=1;jettySize=auto;html=1;" edge="1" parent="1" source="CiracRnr1kj4nNwio__P-66" target="CiracRnr1kj4nNwio__P-69">
          <mxGeometry relative="1" as="geometry" />
        </mxCell>
        <mxCell id="CiracRnr1kj4nNwio__P-66" value="Input choice" style="shape=parallelogram;perimeter=parallelogramPerimeter;whiteSpace=wrap;html=1;fixedSize=1;fillColor=#ffffff;strokeColor=#000000;" vertex="1" parent="1">
          <mxGeometry x="260" y="240" width="120" height="40" as="geometry" />
        </mxCell>
        <mxCell id="CiracRnr1kj4nNwio__P-67" value="" style="edgeStyle=orthogonalEdgeStyle;rounded=0;orthogonalLoop=1;jettySize=auto;html=1;" edge="1" parent="1" source="CiracRnr1kj4nNwio__P-69" target="CiracRnr1kj4nNwio__P-71">
          <mxGeometry relative="1" as="geometry" />
        </mxCell>
        <mxCell id="CiracRnr1kj4nNwio__P-68" style="edgeStyle=orthogonalEdgeStyle;rounded=0;orthogonalLoop=1;jettySize=auto;html=1;exitX=1;exitY=0.5;exitDx=0;exitDy=0;" edge="1" parent="1" source="CiracRnr1kj4nNwio__P-69" target="CiracRnr1kj4nNwio__P-104">
          <mxGeometry relative="1" as="geometry" />
        </mxCell>
        <mxCell id="CiracRnr1kj4nNwio__P-69" value="Register" style="rhombus;whiteSpace=wrap;html=1;fillColor=#ffffff;strokeColor=#000000;" vertex="1" parent="1">
          <mxGeometry x="270" y="330" width="100" height="100" as="geometry" />
        </mxCell>
        <mxCell id="CiracRnr1kj4nNwio__P-70" value="" style="edgeStyle=orthogonalEdgeStyle;rounded=0;orthogonalLoop=1;jettySize=auto;html=1;" edge="1" parent="1" source="CiracRnr1kj4nNwio__P-71" target="CiracRnr1kj4nNwio__P-73">
          <mxGeometry relative="1" as="geometry" />
        </mxCell>
        <mxCell id="CiracRnr1kj4nNwio__P-71" value="register" style="rounded=0;whiteSpace=wrap;html=1;fillColor=#ffffff;strokeColor=#000000;" vertex="1" parent="1">
          <mxGeometry x="270" y="480" width="100" height="40" as="geometry" />
        </mxCell>
        <mxCell id="CiracRnr1kj4nNwio__P-72" value="" style="edgeStyle=orthogonalEdgeStyle;rounded=0;orthogonalLoop=1;jettySize=auto;html=1;" edge="1" parent="1" source="CiracRnr1kj4nNwio__P-73" target="CiracRnr1kj4nNwio__P-76">
          <mxGeometry relative="1" as="geometry" />
        </mxCell>
        <mxCell id="CiracRnr1kj4nNwio__P-73" value="Input username" style="shape=parallelogram;perimeter=parallelogramPerimeter;whiteSpace=wrap;html=1;fixedSize=1;fillColor=#ffffff;strokeColor=#000000;" vertex="1" parent="1">
          <mxGeometry x="260" y="560" width="120" height="40" as="geometry" />
        </mxCell>
        <mxCell id="CiracRnr1kj4nNwio__P-74" value="" style="edgeStyle=orthogonalEdgeStyle;rounded=0;orthogonalLoop=1;jettySize=auto;html=1;" edge="1" parent="1" source="CiracRnr1kj4nNwio__P-76" target="CiracRnr1kj4nNwio__P-78">
          <mxGeometry relative="1" as="geometry" />
        </mxCell>
        <mxCell id="CiracRnr1kj4nNwio__P-75" value="" style="edgeStyle=orthogonalEdgeStyle;rounded=0;orthogonalLoop=1;jettySize=auto;html=1;" edge="1" parent="1" source="CiracRnr1kj4nNwio__P-76" target="CiracRnr1kj4nNwio__P-80">
          <mxGeometry relative="1" as="geometry" />
        </mxCell>
        <mxCell id="CiracRnr1kj4nNwio__P-76" value="username in users?" style="rhombus;whiteSpace=wrap;html=1;fillColor=#ffffff;strokeColor=#000000;" vertex="1" parent="1">
          <mxGeometry x="260" y="640" width="120" height="80" as="geometry" />
        </mxCell>
        <mxCell id="CiracRnr1kj4nNwio__P-77" style="edgeStyle=orthogonalEdgeStyle;rounded=0;orthogonalLoop=1;jettySize=auto;html=1;exitX=0.5;exitY=1;exitDx=0;exitDy=0;" edge="1" parent="1" source="CiracRnr1kj4nNwio__P-78" target="CiracRnr1kj4nNwio__P-116">
          <mxGeometry relative="1" as="geometry" />
        </mxCell>
        <mxCell id="CiracRnr1kj4nNwio__P-78" value="Output &quot;Username Already used!&quot;" style="shape=parallelogram;perimeter=parallelogramPerimeter;whiteSpace=wrap;html=1;fixedSize=1;fillColor=#ffffff;strokeColor=#000000;" vertex="1" parent="1">
          <mxGeometry x="10" y="660" width="200" height="40" as="geometry" />
        </mxCell>
        <mxCell id="CiracRnr1kj4nNwio__P-79" value="" style="edgeStyle=orthogonalEdgeStyle;rounded=0;orthogonalLoop=1;jettySize=auto;html=1;" edge="1" parent="1" source="CiracRnr1kj4nNwio__P-80" target="CiracRnr1kj4nNwio__P-82">
          <mxGeometry relative="1" as="geometry" />
        </mxCell>
        <mxCell id="CiracRnr1kj4nNwio__P-80" value="Input password" style="shape=parallelogram;perimeter=parallelogramPerimeter;whiteSpace=wrap;html=1;fixedSize=1;fillColor=#ffffff;strokeColor=#000000;" vertex="1" parent="1">
          <mxGeometry x="260" y="760" width="120" height="40" as="geometry" />
        </mxCell>
        <mxCell id="CiracRnr1kj4nNwio__P-81" value="" style="edgeStyle=orthogonalEdgeStyle;rounded=0;orthogonalLoop=1;jettySize=auto;html=1;" edge="1" parent="1" source="CiracRnr1kj4nNwio__P-82" target="CiracRnr1kj4nNwio__P-84">
          <mxGeometry relative="1" as="geometry" />
        </mxCell>
        <mxCell id="CiracRnr1kj4nNwio__P-82" value="users[username] = ...&lt;br&gt;activity[&#39;carts&#39;][username] = []" style="rounded=0;whiteSpace=wrap;html=1;fillColor=#ffffff;strokeColor=#000000;" vertex="1" parent="1">
          <mxGeometry x="240" y="840" width="160" height="40" as="geometry" />
        </mxCell>
        <mxCell id="CiracRnr1kj4nNwio__P-83" style="edgeStyle=orthogonalEdgeStyle;rounded=0;orthogonalLoop=1;jettySize=auto;html=1;exitX=1;exitY=0.5;exitDx=0;exitDy=0;" edge="1" parent="1" source="CiracRnr1kj4nNwio__P-84" target="CiracRnr1kj4nNwio__P-128">
          <mxGeometry relative="1" as="geometry" />
        </mxCell>
        <mxCell id="CiracRnr1kj4nNwio__P-84" value="Output &quot;Registration Successful&quot;" style="shape=parallelogram;perimeter=parallelogramPerimeter;whiteSpace=wrap;html=1;fixedSize=1;fillColor=#ffffff;strokeColor=#000000;" vertex="1" parent="1">
          <mxGeometry x="242" y="920" width="156" height="40" as="geometry" />
        </mxCell>
        <mxCell id="CiracRnr1kj4nNwio__P-85" value="" style="edgeStyle=orthogonalEdgeStyle;rounded=0;orthogonalLoop=1;jettySize=auto;html=1;" edge="1" parent="1" source="CiracRnr1kj4nNwio__P-86" target="CiracRnr1kj4nNwio__P-88">
          <mxGeometry relative="1" as="geometry" />
        </mxCell>
        <mxCell id="CiracRnr1kj4nNwio__P-86" value="login" style="rounded=0;whiteSpace=wrap;html=1;fillColor=#ffffff;strokeColor=#000000;" vertex="1" parent="1">
          <mxGeometry x="550" y="480" width="100" height="40" as="geometry" />
        </mxCell>
        <mxCell id="CiracRnr1kj4nNwio__P-87" value="" style="edgeStyle=orthogonalEdgeStyle;rounded=0;orthogonalLoop=1;jettySize=auto;html=1;" edge="1" parent="1" source="CiracRnr1kj4nNwio__P-88" target="CiracRnr1kj4nNwio__P-91">
          <mxGeometry relative="1" as="geometry" />
        </mxCell>
        <mxCell id="CiracRnr1kj4nNwio__P-88" value="Input username, password" style="shape=parallelogram;perimeter=parallelogramPerimeter;whiteSpace=wrap;html=1;fixedSize=1;fillColor=#ffffff;strokeColor=#000000;" vertex="1" parent="1">
          <mxGeometry x="517" y="560" width="166" height="40" as="geometry" />
        </mxCell>
        <mxCell id="CiracRnr1kj4nNwio__P-89" value="" style="edgeStyle=orthogonalEdgeStyle;rounded=0;orthogonalLoop=1;jettySize=auto;html=1;" edge="1" parent="1" source="CiracRnr1kj4nNwio__P-91" target="CiracRnr1kj4nNwio__P-93">
          <mxGeometry relative="1" as="geometry" />
        </mxCell>
        <mxCell id="CiracRnr1kj4nNwio__P-90" value="" style="edgeStyle=orthogonalEdgeStyle;rounded=0;orthogonalLoop=1;jettySize=auto;html=1;" edge="1" parent="1" source="CiracRnr1kj4nNwio__P-91" target="CiracRnr1kj4nNwio__P-95">
          <mxGeometry relative="1" as="geometry" />
        </mxCell>
        <mxCell id="CiracRnr1kj4nNwio__P-91" value="user_data &amp;amp;&amp; pass == user_pass?" style="rhombus;whiteSpace=wrap;html=1;fillColor=#ffffff;strokeColor=#000000;" vertex="1" parent="1">
          <mxGeometry x="505" y="640" width="190" height="90" as="geometry" />
        </mxCell>
        <mxCell id="CiracRnr1kj4nNwio__P-92" style="edgeStyle=orthogonalEdgeStyle;rounded=0;orthogonalLoop=1;jettySize=auto;html=1;" edge="1" parent="1" source="CiracRnr1kj4nNwio__P-93" target="CiracRnr1kj4nNwio__P-128">
          <mxGeometry relative="1" as="geometry" />
        </mxCell>
        <mxCell id="CiracRnr1kj4nNwio__P-93" value="Output &quot;Login Successful&quot;&lt;br&gt;Return username, role" style="shape=parallelogram;perimeter=parallelogramPerimeter;whiteSpace=wrap;html=1;fixedSize=1;fillColor=#ffffff;strokeColor=#000000;" vertex="1" parent="1">
          <mxGeometry x="520" y="760" width="160" height="50" as="geometry" />
        </mxCell>
        <mxCell id="CiracRnr1kj4nNwio__P-94" style="edgeStyle=orthogonalEdgeStyle;rounded=0;orthogonalLoop=1;jettySize=auto;html=1;exitX=0.5;exitY=1;exitDx=0;exitDy=0;" edge="1" parent="1" source="CiracRnr1kj4nNwio__P-95" target="CiracRnr1kj4nNwio__P-119">
          <mxGeometry relative="1" as="geometry" />
        </mxCell>
        <mxCell id="CiracRnr1kj4nNwio__P-95" value="Output &quot;Invalid Username or Password!!&quot;&lt;br&gt;Return None, None" style="shape=parallelogram;perimeter=parallelogramPerimeter;whiteSpace=wrap;html=1;fixedSize=1;fillColor=#ffffff;strokeColor=#000000;" vertex="1" parent="1">
          <mxGeometry x="740" y="660" width="210" height="50" as="geometry" />
        </mxCell>
        <mxCell id="CiracRnr1kj4nNwio__P-96" value="Output &quot;Thanks For Using...&quot;" style="shape=parallelogram;perimeter=parallelogramPerimeter;whiteSpace=wrap;html=1;fixedSize=1;fillColor=#ffffff;strokeColor=#000000;" vertex="1" parent="1">
          <mxGeometry x="800" y="480" width="160" height="40" as="geometry" />
        </mxCell>
        <mxCell id="CiracRnr1kj4nNwio__P-97" value="Output &quot;Invalid Choice!!&quot;" style="shape=parallelogram;perimeter=parallelogramPerimeter;whiteSpace=wrap;html=1;fixedSize=1;fillColor=#ffffff;strokeColor=#000000;" vertex="1" parent="1">
          <mxGeometry x="985" y="360" width="150" height="40" as="geometry" />
        </mxCell>
        <mxCell id="CiracRnr1kj4nNwio__P-98" value="False" style="text;html=1;align=center;verticalAlign=middle;resizable=0;points=[];autosize=1;strokeColor=none;fillColor=none;" vertex="1" parent="1">
          <mxGeometry x="210" y="650" width="50" height="30" as="geometry" />
        </mxCell>
        <mxCell id="CiracRnr1kj4nNwio__P-99" value="True" style="text;html=1;align=center;verticalAlign=middle;resizable=0;points=[];autosize=1;strokeColor=none;fillColor=none;" vertex="1" parent="1">
          <mxGeometry x="320" y="720" width="50" height="30" as="geometry" />
        </mxCell>
        <mxCell id="CiracRnr1kj4nNwio__P-100" value="" style="edgeStyle=orthogonalEdgeStyle;rounded=0;orthogonalLoop=1;jettySize=auto;html=1;" edge="1" parent="1" source="CiracRnr1kj4nNwio__P-101" target="CiracRnr1kj4nNwio__P-64">
          <mxGeometry relative="1" as="geometry" />
        </mxCell>
        <mxCell id="CiracRnr1kj4nNwio__P-101" value="Start" style="ellipse;whiteSpace=wrap;html=1;" vertex="1" parent="1">
          <mxGeometry x="267" y="10" width="106" height="70" as="geometry" />
        </mxCell>
        <mxCell id="CiracRnr1kj4nNwio__P-102" value="" style="edgeStyle=orthogonalEdgeStyle;rounded=0;orthogonalLoop=1;jettySize=auto;html=1;" edge="1" parent="1" source="CiracRnr1kj4nNwio__P-104" target="CiracRnr1kj4nNwio__P-86">
          <mxGeometry relative="1" as="geometry" />
        </mxCell>
        <mxCell id="CiracRnr1kj4nNwio__P-103" style="edgeStyle=orthogonalEdgeStyle;rounded=0;orthogonalLoop=1;jettySize=auto;html=1;exitX=1;exitY=0.5;exitDx=0;exitDy=0;" edge="1" parent="1" source="CiracRnr1kj4nNwio__P-104" target="CiracRnr1kj4nNwio__P-111">
          <mxGeometry relative="1" as="geometry" />
        </mxCell>
        <mxCell id="CiracRnr1kj4nNwio__P-104" value="Login" style="rhombus;whiteSpace=wrap;html=1;fillColor=#ffffff;strokeColor=#000000;" vertex="1" parent="1">
          <mxGeometry x="550" y="330" width="100" height="100" as="geometry" />
        </mxCell>
        <mxCell id="CiracRnr1kj4nNwio__P-105" value="True" style="text;html=1;align=center;verticalAlign=middle;resizable=0;points=[];autosize=1;strokeColor=none;fillColor=none;" vertex="1" parent="1">
          <mxGeometry x="323" y="440" width="50" height="30" as="geometry" />
        </mxCell>
        <mxCell id="CiracRnr1kj4nNwio__P-106" value="False" style="text;html=1;align=center;verticalAlign=middle;resizable=0;points=[];autosize=1;strokeColor=none;fillColor=none;" vertex="1" parent="1">
          <mxGeometry x="425" y="338" width="50" height="30" as="geometry" />
        </mxCell>
        <mxCell id="CiracRnr1kj4nNwio__P-107" value="True" style="text;html=1;align=center;verticalAlign=middle;resizable=0;points=[];autosize=1;strokeColor=none;fillColor=none;" vertex="1" parent="1">
          <mxGeometry x="600" y="730" width="50" height="30" as="geometry" />
        </mxCell>
        <mxCell id="CiracRnr1kj4nNwio__P-108" value="False" style="text;html=1;align=center;verticalAlign=middle;resizable=0;points=[];autosize=1;strokeColor=none;fillColor=none;" vertex="1" parent="1">
          <mxGeometry x="695" y="650" width="50" height="30" as="geometry" />
        </mxCell>
        <mxCell id="CiracRnr1kj4nNwio__P-109" value="" style="edgeStyle=orthogonalEdgeStyle;rounded=0;orthogonalLoop=1;jettySize=auto;html=1;" edge="1" parent="1" source="CiracRnr1kj4nNwio__P-111" target="CiracRnr1kj4nNwio__P-96">
          <mxGeometry relative="1" as="geometry" />
        </mxCell>
        <mxCell id="CiracRnr1kj4nNwio__P-110" value="" style="edgeStyle=orthogonalEdgeStyle;rounded=0;orthogonalLoop=1;jettySize=auto;html=1;" edge="1" parent="1" source="CiracRnr1kj4nNwio__P-111" target="CiracRnr1kj4nNwio__P-97">
          <mxGeometry relative="1" as="geometry" />
        </mxCell>
        <mxCell id="CiracRnr1kj4nNwio__P-111" value="Login" style="rhombus;whiteSpace=wrap;html=1;fillColor=#ffffff;strokeColor=#000000;" vertex="1" parent="1">
          <mxGeometry x="830" y="330" width="100" height="100" as="geometry" />
        </mxCell>
        <mxCell id="CiracRnr1kj4nNwio__P-112" value="True" style="text;html=1;align=center;verticalAlign=middle;resizable=0;points=[];autosize=1;strokeColor=none;fillColor=none;" vertex="1" parent="1">
          <mxGeometry x="605" y="438" width="50" height="30" as="geometry" />
        </mxCell>
        <mxCell id="CiracRnr1kj4nNwio__P-113" value="False" style="text;strokeColor=none;align=center;fillColor=none;html=1;verticalAlign=middle;whiteSpace=wrap;rounded=0;" vertex="1" parent="1">
          <mxGeometry x="720" y="338" width="60" height="30" as="geometry" />
        </mxCell>
        <mxCell id="CiracRnr1kj4nNwio__P-114" value="True" style="text;html=1;align=center;verticalAlign=middle;resizable=0;points=[];autosize=1;strokeColor=none;fillColor=none;" vertex="1" parent="1">
          <mxGeometry x="885" y="438" width="50" height="30" as="geometry" />
        </mxCell>
        <mxCell id="CiracRnr1kj4nNwio__P-115" value="False" style="text;html=1;align=center;verticalAlign=middle;resizable=0;points=[];autosize=1;strokeColor=none;fillColor=none;" vertex="1" parent="1">
          <mxGeometry x="935" y="348" width="50" height="30" as="geometry" />
        </mxCell>
        <mxCell id="CiracRnr1kj4nNwio__P-116" value="" style="verticalLabelPosition=bottom;verticalAlign=top;html=1;shape=mxgraph.flowchart.on-page_reference;" vertex="1" parent="1">
          <mxGeometry x="80" y="747" width="60" height="60" as="geometry" />
        </mxCell>
        <mxCell id="CiracRnr1kj4nNwio__P-117" value="1" style="text;html=1;align=center;verticalAlign=middle;resizable=0;points=[];autosize=1;strokeColor=none;fillColor=none;" vertex="1" parent="1">
          <mxGeometry x="95" y="762" width="30" height="30" as="geometry" />
        </mxCell>
        <mxCell id="CiracRnr1kj4nNwio__P-118" value="1" style="text;html=1;align=center;verticalAlign=middle;resizable=0;points=[];autosize=1;strokeColor=none;fillColor=none;" vertex="1" parent="1">
          <mxGeometry x="830" y="760" width="30" height="30" as="geometry" />
        </mxCell>
        <mxCell id="CiracRnr1kj4nNwio__P-119" value="" style="verticalLabelPosition=bottom;verticalAlign=top;html=1;shape=mxgraph.flowchart.on-page_reference;" vertex="1" parent="1">
          <mxGeometry x="815" y="755" width="60" height="60" as="geometry" />
        </mxCell>
        <mxCell id="CiracRnr1kj4nNwio__P-120" value="1" style="text;html=1;align=center;verticalAlign=middle;resizable=0;points=[];autosize=1;strokeColor=none;fillColor=none;" vertex="1" parent="1">
          <mxGeometry x="830" y="770" width="30" height="30" as="geometry" />
        </mxCell>
        <mxCell id="CiracRnr1kj4nNwio__P-121" value="1" style="text;html=1;align=center;verticalAlign=middle;resizable=0;points=[];autosize=1;strokeColor=none;fillColor=none;" vertex="1" parent="1">
          <mxGeometry x="1045" y="445" width="30" height="30" as="geometry" />
        </mxCell>
        <mxCell id="CiracRnr1kj4nNwio__P-122" value="" style="verticalLabelPosition=bottom;verticalAlign=top;html=1;shape=mxgraph.flowchart.on-page_reference;" vertex="1" parent="1">
          <mxGeometry x="1030" y="440" width="60" height="60" as="geometry" />
        </mxCell>
        <mxCell id="CiracRnr1kj4nNwio__P-123" value="1" style="text;html=1;align=center;verticalAlign=middle;resizable=0;points=[];autosize=1;strokeColor=none;fillColor=none;" vertex="1" parent="1">
          <mxGeometry x="1045" y="455" width="30" height="30" as="geometry" />
        </mxCell>
        <mxCell id="CiracRnr1kj4nNwio__P-124" style="edgeStyle=orthogonalEdgeStyle;rounded=0;orthogonalLoop=1;jettySize=auto;html=1;exitX=0.5;exitY=1;exitDx=0;exitDy=0;entryX=0.5;entryY=0;entryDx=0;entryDy=0;entryPerimeter=0;" edge="1" parent="1" source="CiracRnr1kj4nNwio__P-97" target="CiracRnr1kj4nNwio__P-122">
          <mxGeometry relative="1" as="geometry" />
        </mxCell>
        <mxCell id="CiracRnr1kj4nNwio__P-125" style="edgeStyle=orthogonalEdgeStyle;rounded=0;orthogonalLoop=1;jettySize=auto;html=1;exitX=1;exitY=0.5;exitDx=0;exitDy=0;exitPerimeter=0;" edge="1" parent="1" source="CiracRnr1kj4nNwio__P-126" target="CiracRnr1kj4nNwio__P-66">
          <mxGeometry relative="1" as="geometry" />
        </mxCell>
        <mxCell id="CiracRnr1kj4nNwio__P-126" value="" style="verticalLabelPosition=bottom;verticalAlign=top;html=1;shape=mxgraph.flowchart.on-page_reference;" vertex="1" parent="1">
          <mxGeometry x="160" y="230" width="60" height="60" as="geometry" />
        </mxCell>
        <mxCell id="CiracRnr1kj4nNwio__P-127" value="1" style="text;html=1;align=center;verticalAlign=middle;resizable=0;points=[];autosize=1;strokeColor=none;fillColor=none;" vertex="1" parent="1">
          <mxGeometry x="175" y="245" width="30" height="30" as="geometry" />
        </mxCell>
        <mxCell id="CiracRnr1kj4nNwio__P-128" value="" style="verticalLabelPosition=bottom;verticalAlign=top;html=1;shape=offPageConnector;rounded=0;size=0.5;" vertex="1" parent="1">
          <mxGeometry x="570" y="910" width="60" height="60" as="geometry" />
        </mxCell>
        <mxCell id="CiracRnr1kj4nNwio__P-129" value="1" style="text;html=1;align=center;verticalAlign=middle;resizable=0;points=[];autosize=1;strokeColor=none;fillColor=none;" vertex="1" parent="1">
          <mxGeometry x="585" y="920" width="30" height="30" as="geometry" />
        </mxCell>
        <mxCell id="CiracRnr1kj4nNwio__P-130" style="edgeStyle=orthogonalEdgeStyle;rounded=0;orthogonalLoop=1;jettySize=auto;html=1;exitX=0;exitY=0.5;exitDx=0;exitDy=0;" edge="1" parent="1" source="CiracRnr1kj4nNwio__P-131" target="CiracRnr1kj4nNwio__P-66">
          <mxGeometry relative="1" as="geometry" />
        </mxCell>
        <mxCell id="CiracRnr1kj4nNwio__P-131" value="" style="verticalLabelPosition=bottom;verticalAlign=top;html=1;shape=offPageConnector;rounded=0;size=0.5;" vertex="1" parent="1">
          <mxGeometry x="420" y="230" width="60" height="60" as="geometry" />
        </mxCell>
        <mxCell id="CiracRnr1kj4nNwio__P-132" value="2" style="text;html=1;align=center;verticalAlign=middle;resizable=0;points=[];autosize=1;strokeColor=none;fillColor=none;" vertex="1" parent="1">
          <mxGeometry x="435" y="236" width="30" height="30" as="geometry" />
        </mxCell>
        <mxCell id="CiracRnr1kj4nNwio__P-133" value="End" style="ellipse;whiteSpace=wrap;html=1;" vertex="1" parent="1">
          <mxGeometry x="267" y="1209" width="106" height="70" as="geometry" />
        </mxCell>
        <mxCell id="CiracRnr1kj4nNwio__P-134" value="" style="edgeStyle=orthogonalEdgeStyle;rounded=0;orthogonalLoop=1;jettySize=auto;html=1;" edge="1" parent="1" source="CiracRnr1kj4nNwio__P-135" target="CiracRnr1kj4nNwio__P-133">
          <mxGeometry relative="1" as="geometry" />
        </mxCell>
        <mxCell id="CiracRnr1kj4nNwio__P-135" value="Output &quot;You Have&amp;nbsp;&lt;div&gt;Logged out&quot;&lt;/div&gt;" style="shape=parallelogram;perimeter=parallelogramPerimeter;whiteSpace=wrap;html=1;fixedSize=1;fillColor=#ffffff;strokeColor=#000000;" vertex="1" parent="1">
          <mxGeometry x="242" y="1139" width="156" height="40" as="geometry" />
        </mxCell>
        <mxCell id="CiracRnr1kj4nNwio__P-136" style="edgeStyle=orthogonalEdgeStyle;rounded=0;orthogonalLoop=1;jettySize=auto;html=1;exitX=0.5;exitY=1;exitDx=0;exitDy=0;" edge="1" parent="1" source="CiracRnr1kj4nNwio__P-137" target="CiracRnr1kj4nNwio__P-135">
          <mxGeometry relative="1" as="geometry" />
        </mxCell>
        <mxCell id="CiracRnr1kj4nNwio__P-137" value="" style="verticalLabelPosition=bottom;verticalAlign=top;html=1;shape=offPageConnector;rounded=0;size=0.5;" vertex="1" parent="1">
          <mxGeometry x="290" y="1039" width="60" height="60" as="geometry" />
        </mxCell>
        <mxCell id="CiracRnr1kj4nNwio__P-138" value="3" style="text;html=1;align=center;verticalAlign=middle;resizable=0;points=[];autosize=1;strokeColor=none;fillColor=none;" vertex="1" parent="1">
          <mxGeometry x="305" y="1049" width="30" height="30" as="geometry" />
        </mxCell>
      </root>
    </mxGraphModel>
  </diagram>
</mxfile>
